HIERARCHY
ROOT hip
{
	OFFSET 0.000000 0.000000 0.000000 
	CHANNELS 6 Xposition Yposition Zposition Xrotation Zrotation Yrotation
	JOINT abdomen
	{
		OFFSET 0.000000 3.402643 0.000000 
		CHANNELS 3 Xrotation Zrotation Yrotation
		JOINT chest
		{
			OFFSET 0.000000 8.438565 -0.680529 
			CHANNELS 3 Xrotation Zrotation Yrotation
			JOINT neck
			{
				OFFSET 0.000000 10.207942 -0.272212 
				CHANNELS 3 Xrotation Zrotation Yrotation
				JOINT head
				{
					OFFSET 0.000000 3.130431 0.000000 
					CHANNELS 3 Xrotation Zrotation Yrotation
					End Site
					{
						OFFSET 0.000000 3.130435 0.000000 
					}
				}
			}
			JOINT lCollar
			{
				OFFSET 3.470700 6.669187 -0.816635 
				CHANNELS 3 Yrotation Zrotation Xrotation
				JOINT lShldr
				{
					OFFSET 3.198488 0.000000 0.000000 
					CHANNELS 3 Zrotation Yrotation Xrotation
					JOINT lForeArm
					{
						OFFSET 10.139888 0.000000 0.000000 
						CHANNELS 3 Yrotation Zrotation Xrotation
						JOINT lHand
						{
							OFFSET 8.370511 0.000000 0.000000 
							CHANNELS 3 Zrotation Yrotation Xrotation
							End Site
							{
								OFFSET 4.083176 0.000000 0.000000 
							}
						}
					}
				}
			}
			JOINT rCollar
			{
				OFFSET -3.470700 6.669187 -0.816635 
				CHANNELS 3 Yrotation Zrotation Xrotation
				JOINT rShldr
				{
					OFFSET -3.198488 0.000000 0.000000 
					CHANNELS 3 Zrotation Yrotation Xrotation
					JOINT rForeArm
					{
						OFFSET -10.139888 0.000000 0.000000 
						CHANNELS 3 Yrotation Zrotation Xrotation
						JOINT rHand
						{
							OFFSET -8.370511 0.000000 0.000000 
							CHANNELS 3 Zrotation Yrotation Xrotation
							End Site
							{
								OFFSET -4.083176 0.000000 0.000000 
							}
						}
					}
				}
			}
		}
	}
	JOINT lThigh
	{
		OFFSET 5.308129 -1.633274 1.361059 
		CHANNELS 3 Xrotation Zrotation Yrotation
		JOINT lShin
		{
			OFFSET -2.041588 -20.007561 0.000000 
			CHANNELS 3 Xrotation Zrotation Yrotation
			JOINT lFoot
			{
				OFFSET 0.000000 -19.190928 -1.224953 
				CHANNELS 3 Xrotation Yrotation Zrotation
				End Site
				{
					OFFSET 0.000000 -2.449906 4.627600 
				}
			}
		}
	}
	JOINT rThigh
	{
		OFFSET -5.308129 -1.633274 1.361059 
		CHANNELS 3 Xrotation Zrotation Yrotation
		JOINT rShin
		{
			OFFSET 2.041588 -20.007561 0.000000 
			CHANNELS 3 Xrotation Zrotation Yrotation
			JOINT rFoot
			{
				OFFSET 0.000000 -19.190928 -1.224953 
				CHANNELS 3 Xrotation Yrotation Zrotation
				End Site
				{
					OFFSET 0.000000 -2.449906 4.627600 
				}
			}
		}
	}
}
MOTION
Frames: 8
Frame Time: 0.033333
3.181732 51.870815 2.051740 8.583984 -11.152344 58.425842 30.200712 -13.602451 -4.716929 -26.728516 11.445313 5.390625 51.553619 8.070152 2.616707 -69.609375 -9.160155 -11.319914 2.000000 -2.000000 0.000000 -84.482422 14.658204 -0.837371 -85.394531 -0.056506 -2.868425 -10.341129 29.205715 -5.264201 -2.000000 2.000000 0.000000 75.048828 -24.765625 18.212891 89.761658 0.187199 -2.929322 -17.754959 -37.160980 5.576564 -13.944094 -3.867059 -0.027278 17.797409 -5.799020 -2.239089 -8.313032 8.475694 6.421715 -16.391054 -11.175497 -14.670799 62.809238 2.382744 4.798915 24.734978 -14.725575 0.059503 
6.363454 52.136536 4.103457 7.011719 -12.763672 58.894329 30.118601 -10.474812 -5.966817 -27.597658 13.212892 3.691407 51.553619 8.070152 2.616707 -71.767578 -10.371093 -7.081837 2.000000 -2.000000 0.000000 -86.123047 5.957031 2.862343 -89.427689 -0.309987 -2.853720 -9.253384 25.989943 -4.622535 -2.000000 2.000000 0.000000 74.921875 -34.560551 16.318357 89.933365 0.032488 -2.791598 -17.649727 -40.411907 4.998114 -7.350092 -2.626067 -0.279278 12.317900 -5.788229 -1.650038 -6.617610 10.985327 8.742929 -24.421000 -13.122754 -13.253750 63.865028 2.294881 4.849396 19.377481 -13.421734 -0.510995 
9.742322 52.293713 6.380961 5.625000 -14.355468 59.177265 29.744291 -7.014708 -7.421629 -28.310551 14.462892 2.675781 51.553619 8.070152 2.616707 -73.330078 -11.142577 -2.744141 2.000000 -2.000000 0.000000 -87.001953 -1.728516 6.220408 -93.496414 0.321311 -2.763227 -8.868789 22.645813 -4.230427 -2.000000 2.000000 0.000000 74.384766 -43.505859 14.521484 90.099358 0.227473 -2.780320 -17.633469 -42.931873 4.946456 -1.156097 -0.992378 0.011478 7.195110 -5.894681 -1.306846 -1.666255 12.379270 9.783467 -30.962231 -14.010544 -11.072698 63.182999 2.480370 4.760255 14.512243 -12.206501 -0.282790 
13.313643 52.375420 8.885575 4.355469 -15.625000 59.433594 28.757433 -3.014650 -9.425243 -28.466799 15.156251 2.470704 51.553619 8.070152 2.616707 -73.681641 -12.070312 2.285156 2.000000 -2.000000 0.000000 -87.255859 -6.503907 8.641473 -97.733414 0.225816 -3.060811 -7.737002 18.992022 -3.431029 -2.000000 2.000000 0.000000 72.773438 -51.582031 14.162271 90.826675 -0.084653 -2.964604 -17.088951 -44.836861 4.558485 4.187155 0.205277 0.190704 3.552669 -6.306791 -0.674680 7.695922 12.854858 9.334125 -34.498219 -13.162128 -9.360839 58.261398 2.783102 4.526254 11.041525 -10.170189 -1.117328 
16.932590 52.226795 11.454870 3.652344 -16.162109 59.411350 27.614550 1.059365 -11.521758 -28.291016 15.517577 3.046875 51.553619 8.070152 2.616707 -73.085938 -13.847656 7.822267 2.000000 -2.000000 0.000000 -85.322266 -6.826172 10.877748 -103.205261 0.677273 -3.204222 -7.383528 13.949595 -2.992114 -2.000000 2.000000 0.000000 68.974609 -58.046875 17.042496 92.397842 -0.048766 -2.571406 -15.503429 -45.513779 4.424625 7.975593 0.703171 1.744516 3.014767 -6.344337 -0.576349 20.178658 12.277694 8.138115 -33.337158 -10.155442 -6.350950 45.088673 3.866654 3.995660 10.793853 -8.036982 -1.244712 
20.586369 54.307411 14.069042 3.623047 -15.634766 58.747364 26.554102 3.674428 -12.873084 -28.105471 15.693360 3.291016 51.553619 8.070152 2.616707 -72.031250 -15.048828 11.796875 2.000000 -2.000000 0.000000 -81.103516 -3.554688 14.482422 -108.840805 0.939048 -2.906624 -6.556766 8.083199 -2.868898 -2.000000 2.000000 0.000000 66.904297 -63.623047 19.766644 94.514252 -0.170551 -2.832678 -14.174557 -45.112736 4.862379 10.971415 0.537797 4.326118 5.130596 -6.314772 -0.841473 23.996748 13.938087 9.392009 -29.155823 -5.653677 -3.594620 26.603798 5.086675 1.955894 12.258907 -5.445723 -3.048227 
24.262133 54.735813 16.708330 4.511719 -14.374999 57.548824 26.011053 3.128022 -12.999928 -28.291016 15.166015 2.519532 51.553619 8.070152 2.616707 -70.498047 -14.804686 12.968751 2.000000 -2.000000 0.000000 -77.177734 0.478516 16.982443 -110.953278 1.089100 -2.680835 -6.188824 5.580332 -2.982036 -2.000000 2.000000 0.000000 70.703125 -66.650391 17.403145 95.919960 -0.122935 -2.810367 -13.709715 -44.647083 5.886655 12.374243 0.137813 7.435727 10.449945 -6.245810 -1.215709 28.151352 15.910174 8.084691 -23.517033 -1.620824 -1.924926 9.677778 5.966523 0.774962 13.513086 -3.307654 -5.331259 
27.946808 54.897442 19.352936 5.576172 -12.626954 56.404114 25.889664 0.913349 -12.343724 -28.476564 14.453126 1.396485 51.553619 8.070152 2.616707 -68.818359 -13.525390 12.497716 2.000000 -2.000000 0.000000 -75.429688 3.378906 17.500578 -108.671463 0.770087 -3.121719 -6.609265 6.345273 -3.268426 -2.000000 2.000000 0.000000 78.437500 -67.333984 9.453878 95.758247 -0.329228 -2.626791 -13.647823 -44.216457 7.739426 12.117233 0.498580 10.512214 18.048346 -6.034336 -2.080933 31.454056 17.914484 5.574451 -19.614035 1.767347 -0.910787 -0.564910 6.138355 -0.454469 13.494314 -2.517567 -6.413702 
